<?xml version="1.0" encoding="UTF-8" standalone="no"?>
<svg
   width="800px"
   height="800px"
   viewBox="0 0 24 24"
   version="1.1"
   xmlns="http://www.w3.org/2000/svg">
  <path
     d="M7 7.64848C8 5.40663 10.5 4.2217 12 7.64844C12.3571 8.46415 12.5547 9.27985 12.6158 10.0793M12.6158 10.0793C12.897 13.7579 10.2859 17.0925 7 18.5V14.4233C7 13.6278 7 13.23 7.12969 12.8876C7.24426 12.5852 7.43048 12.315 7.67238 12.1003C7.94619 11.8573 8.3179 11.7158 9.06133 11.4327L12.6158 10.0793ZM12.6158 10.0793L16 8.79077L15.5 12.2176H18M21 16H15M4 16H3"
     stroke="#000000"
     stroke-width="2"
     stroke-linecap="round"
     stroke-linejoin="round"
     fill="none"  id="path10" />
  <ellipse
     style="fill:none;stroke:#d70000;stroke-width:1.99516;"
     id="path846"
     cx="11.983898"
     cy="12.338481"
     rx="10.750201"
     ry="10.332856" />
  <path
     style="fill:none;stroke:#d70000;stroke-width:2.1;stroke-linecap:butt;stroke-linejoin:miter;"
     d="M 19.560628,4.8625463 4.3940324,20.029142"
     id="path866" />
</svg>